# xmcd CD database file
#
# Track frame offsets:
#	150
#	15484
#	31581
#	47892
#	61837
#	78150
#	93941
#	111526
#	127051
#	140774
#
# Disc length: 2073 seconds
#
# Revision: 1
# Processed by: cddbd v1.5.2PL0 Copyright (c) Steve Scherf et al.
# Submitted via: CDex 1.51
#
DISCID=7f08170a
DTITLE=ג'אננה, להקת - צ'קול-קו בג'אננה
DYEAR=1999
DGENRE=מזרחי
TTITLE0=שיר הרעבים
TTITLE1=המדינה בג'אננה
TTITLE2=איזה קטע
TTITLE3=נחש אוהב חשיש
TTITLE4=שיר האספסוף
TTITLE5=עיתונאי דגול שלי
TTITLE6=מחוגי הזמן
TTITLE7=מה קורה בין חברים
TTITLE8=צ'קולקו תגלית
TTITLE9=תת-מודע
EXTD=YEAR: 1999
EXTT0=
EXTT1=
EXTT2=
EXTT3=
EXTT4=
EXTT5=
EXTT6=
EXTT7=
EXTT8=
EXTT9=
PLAYORDER=
